<?xml version="1.0" encoding="utf-8"?>
<!-- Generator: Adobe Illustrator 26.3.1, SVG Export Plug-In . SVG Version: 6.00 Build 0)  -->
<svg version="1.1" id="图层_1" xmlns="http://www.w3.org/2000/svg" xmlns:xlink="http://www.w3.org/1999/xlink" x="0px" y="0px"
	 viewBox="0 0 128 128" style="enable-background:new 0 0 128 128;" xml:space="preserve" fill="#F9F9FA">
<polygon points="47.92,62.82 41.87,75.17 21.76,62.82 41.87,50.48 "/>
<polygon points="76.42,85.04 64.08,121.1 51.74,85.04 64.08,78.99 "/>
<polygon points="76.42,40.61 64.08,46.66 51.74,40.61 64.08,4.54 "/>
<polygon points="106.4,62.82 86.29,75.17 80.24,62.82 86.29,50.48 "/>
<polygon points="82.24,76.56 86.49,85.23 77.81,80.98 64.08,74.25 50.35,80.98 41.67,85.23 45.92,76.56 52.65,62.82 45.92,49.09 
	41.67,40.42 50.35,44.67 64.08,51.4 77.81,44.67 86.49,40.42 82.24,49.09 75.51,62.82 "/>
</svg>
